SplineFontDB: 3.2
FontName: Pixel-7x7-condensed
FullName: Pixel 7x7 Condensed
FamilyName: Pixel-7x7
Weight: Regular
Copyright: Copyright (c) 2024, CTCL
UComments: "2024-5-23: Created with FontForge (http://fontforge.org)"
Version: 001.000
ItalicAngle: 0
UnderlinePosition: 86
UnderlineWidth: 86
Ascent: 672
Descent: 192
InvalidEm: 0
LayerCount: 2
Layer: 0 0 "Back" 1
Layer: 1 0 "Fore" 0
XUID: [1021 591 -1735377019 8750905]
StyleMap: 0x0000
FSType: 0
OS2Version: 0
OS2_WeightWidthSlopeOnly: 0
OS2_UseTypoMetrics: 1
CreationTime: 1716471852
ModificationTime: 1716581288
PfmFamily: 33
TTFWeight: 400
TTFWidth: 3
LineGap: 78
VLineGap: 78
OS2TypoAscent: 0
OS2TypoAOffset: 1
OS2TypoDescent: 0
OS2TypoDOffset: 1
OS2TypoLinegap: 78
OS2WinAscent: 0
OS2WinAOffset: 1
OS2WinDescent: 0
OS2WinDOffset: 1
HheadAscent: 0
HheadAOffset: 1
HheadDescent: 0
HheadDOffset: 1
OS2Vendor: 'PfEd'
MarkAttachClasses: 1
DEI: 91125
LangName: 1033
Encoding: ISO8859-1
UnicodeInterp: none
NameList: AGL For New Fonts
DisplaySize: -48
AntiAlias: 1
FitToEm: 0
WinInfo: 0 38 14
BeginPrivate: 0
EndPrivate
TeXData: 1 0 0 233016 116508 77672 582542 1048576 77672 783286 444596 497025 792723 393216 433062 380633 303038 157286 324010 404750 52429 2506097 1059062 262144
BeginChars: 256 96

StartChar: exclam
Encoding: 33 33 1
Width: 192
Flags: HW
LayerCount: 2
Fore
SplineSet
0 672 m 1
 96 672 l 1
 96 576 l 1
 96 480 l 1
 96 384 l 1
 96 288 l 1
 96 192 l 1
 0 192 l 1
 0 288 l 1
 0 384 l 1
 0 480 l 1
 0 576 l 1
 0 672 l 1
0 96 m 1
 96 96 l 1
 96 0 l 1
 0 0 l 1
 0 96 l 1
EndSplineSet
EndChar

StartChar: quotedbl
Encoding: 34 34 2
Width: 384
Flags: HW
LayerCount: 2
Fore
SplineSet
0 672 m 1
 96 672 l 1
 96 576 l 1
 96 480 l 1
 0 480 l 1
 0 576 l 1
 0 672 l 1
192 672 m 1
 288 672 l 1
 288 576 l 1
 288 480 l 1
 192 480 l 1
 192 576 l 1
 192 672 l 1
EndSplineSet
EndChar

StartChar: numbersign
Encoding: 35 35 3
Width: 576
Flags: HW
LayerCount: 2
Fore
SplineSet
96 672 m 1
 192 672 l 1
 192 576 l 1
 192 480 l 1
 288 480 l 1
 288 576 l 1
 288 672 l 1
 384 672 l 1
 384 576 l 1
 384 480 l 1
 480 480 l 1
 480 384 l 1
 384 384 l 1
 384 288 l 1
 480 288 l 1
 480 192 l 1
 384 192 l 1
 384 96 l 1
 384 0 l 1
 288 0 l 1
 288 96 l 1
 288 192 l 1
 192 192 l 1
 192 96 l 1
 192 0 l 1
 96 0 l 1
 96 96 l 1
 96 192 l 1
 0 192 l 1
 0 288 l 1
 96 288 l 1
 96 384 l 1
 0 384 l 1
 0 480 l 1
 96 480 l 1
 96 576 l 1
 96 672 l 1
192 384 m 1
 192 288 l 1
 288 288 l 1
 288 384 l 1
 192 384 l 1
EndSplineSet
EndChar

StartChar: dollar
Encoding: 36 36 4
Width: 576
Flags: HW
LayerCount: 2
Fore
SplineSet
192 672 m 1
 288 672 l 1
 288 576 l 1
 384 576 l 1
 480 576 l 1
 480 480 l 1
 384 480 l 1
 288 480 l 1
 288 384 l 1
 384 384 l 1
 384 288 l 1
 288 288 l 1
 288 192 l 1
 384 192 l 1
 384 96 l 1
 288 96 l 1
 288 0 l 1
 192 0 l 1
 192 96 l 1
 96 96 l 1
 0 96 l 1
 0 192 l 1
 96 192 l 1
 192 192 l 1
 192 288 l 1
 96 288 l 1
 96 384 l 1
 192 384 l 1
 192 480 l 1
 96 480 l 1
 96 576 l 1
 192 576 l 1
 192 672 l 1
384 288 m 1
 480 288 l 1
 480 192 l 1
 384 192 l 1
 384 288 l 1
96 384 m 1
 0 384 l 1
 0 480 l 1
 96 480 l 1
 96 384 l 1
EndSplineSet
EndChar

StartChar: percent
Encoding: 37 37 5
Width: 576
Flags: HW
LayerCount: 2
Fore
SplineSet
0 672 m 1
 96 672 l 1
 192 672 l 1
 192 576 l 1
 192 480 l 1
 96 480 l 1
 0 480 l 1
 0 576 l 1
 0 672 l 1
384 672 m 1
 480 672 l 1
 480 576 l 1
 384 576 l 1
 384 672 l 1
384 576 m 1
 384 480 l 1
 384 384 l 1
 288 384 l 1
 288 480 l 1
 288 576 l 1
 384 576 l 1
288 384 m 1
 288 288 l 1
 192 288 l 1
 192 384 l 1
 288 384 l 1
192 288 m 1
 192 192 l 1
 192 96 l 1
 96 96 l 1
 96 192 l 1
 96 288 l 1
 192 288 l 1
96 96 m 1
 96 0 l 1
 0 0 l 1
 0 96 l 1
 96 96 l 1
288 192 m 1
 384 192 l 1
 480 192 l 1
 480 96 l 1
 480 0 l 1
 384 0 l 1
 288 0 l 1
 288 96 l 1
 288 192 l 1
EndSplineSet
EndChar

StartChar: ampersand
Encoding: 38 38 6
Width: 576
Flags: HW
LayerCount: 2
Fore
SplineSet
192 672 m 1
 288 672 l 1
 288 576 l 1
 192 576 l 1
 192 672 l 1
288 576 m 1
 384 576 l 1
 384 480 l 1
 288 480 l 1
 288 576 l 1
288 480 m 1
 288 384 l 1
 288 288 l 1
 192 288 l 1
 96 288 l 1
 96 384 l 1
 192 384 l 1
 192 480 l 1
 288 480 l 1
288 288 m 1
 384 288 l 1
 480 288 l 1
 480 192 l 1
 384 192 l 1
 384 96 l 1
 288 96 l 1
 288 192 l 1
 288 288 l 1
384 96 m 1
 480 96 l 1
 480 0 l 1
 384 0 l 1
 384 96 l 1
288 96 m 1
 288 0 l 1
 192 0 l 1
 96 0 l 1
 96 96 l 1
 192 96 l 1
 288 96 l 1
96 96 m 1
 0 96 l 1
 0 192 l 1
 0 288 l 1
 96 288 l 1
 96 192 l 1
 96 96 l 1
192 480 m 1
 96 480 l 1
 96 576 l 1
 192 576 l 1
 192 480 l 1
EndSplineSet
EndChar

StartChar: quotesingle
Encoding: 39 39 7
Width: 192
Flags: HW
LayerCount: 2
Fore
SplineSet
0 672 m 1
 96 672 l 1
 96 576 l 1
 96 480 l 1
 0 480 l 1
 0 576 l 1
 0 672 l 1
EndSplineSet
EndChar

StartChar: parenleft
Encoding: 40 40 8
Width: 384
Flags: HW
LayerCount: 2
Fore
SplineSet
192 672 m 1
 288 672 l 1
 288 576 l 1
 192 576 l 1
 192 672 l 1
192 576 m 1
 192 480 l 1
 96 480 l 1
 96 576 l 1
 192 576 l 1
96 480 m 1
 96 384 l 1
 96 288 l 1
 96 192 l 1
 0 192 l 1
 0 288 l 1
 0 384 l 1
 0 480 l 1
 96 480 l 1
96 192 m 1
 192 192 l 1
 192 96 l 1
 96 96 l 1
 96 192 l 1
192 96 m 1
 288 96 l 1
 288 0 l 1
 192 0 l 1
 192 96 l 1
EndSplineSet
EndChar

StartChar: parenright
Encoding: 41 41 9
Width: 384
Flags: HW
LayerCount: 2
Fore
SplineSet
0 672 m 1
 96 672 l 1
 96 576 l 1
 0 576 l 1
 0 672 l 1
96 576 m 1
 192 576 l 1
 192 480 l 1
 96 480 l 1
 96 576 l 1
192 480 m 1
 288 480 l 1
 288 384 l 1
 288 288 l 1
 288 192 l 1
 192 192 l 1
 192 288 l 1
 192 384 l 1
 192 480 l 1
192 192 m 1
 192 96 l 1
 96 96 l 1
 96 192 l 1
 192 192 l 1
96 96 m 1
 96 0 l 1
 0 0 l 1
 0 96 l 1
 96 96 l 1
EndSplineSet
EndChar

StartChar: asterisk
Encoding: 42 42 10
Width: 384
Flags: HW
LayerCount: 2
Fore
SplineSet
0 672 m 1
 96 672 l 1
 96 576 l 1
 0 576 l 1
 0 672 l 1
96 576 m 1
 192 576 l 1
 192 480 l 1
 96 480 l 1
 96 576 l 1
192 576 m 1
 192 672 l 1
 288 672 l 1
 288 576 l 1
 192 576 l 1
192 480 m 1
 288 480 l 1
 288 384 l 1
 192 384 l 1
 192 480 l 1
96 480 m 1
 96 384 l 1
 0 384 l 1
 0 480 l 1
 96 480 l 1
EndSplineSet
EndChar

StartChar: plus
Encoding: 43 43 11
Width: 576
Flags: HW
LayerCount: 2
Fore
SplineSet
192 576 m 1
 288 576 l 1
 288 480 l 1
 288 384 l 1
 384 384 l 1
 480 384 l 1
 480 288 l 1
 384 288 l 1
 288 288 l 1
 288 192 l 1
 288 96 l 1
 192 96 l 1
 192 192 l 1
 192 288 l 1
 96 288 l 1
 0 288 l 1
 0 384 l 1
 96 384 l 1
 192 384 l 1
 192 480 l 1
 192 576 l 1
EndSplineSet
EndChar

StartChar: comma
Encoding: 44 44 12
Width: 192
Flags: HW
LayerCount: 2
Fore
SplineSet
0 192 m 1
 96 192 l 1
 96 96 l 1
 96 0 l 1
 0 0 l 1
 0 96 l 1
 0 192 l 1
EndSplineSet
EndChar

StartChar: hyphen
Encoding: 45 45 13
Width: 576
Flags: HW
LayerCount: 2
Fore
SplineSet
0 384 m 1
 96 384 l 1
 192 384 l 1
 288 384 l 1
 384 384 l 1
 480 384 l 1
 480 288 l 1
 384 288 l 1
 288 288 l 1
 192 288 l 1
 96 288 l 1
 0 288 l 1
 0 384 l 1
EndSplineSet
EndChar

StartChar: period
Encoding: 46 46 14
Width: 192
Flags: HW
LayerCount: 2
Fore
SplineSet
0 96 m 5
 96 96 l 5
 96 0 l 5
 0 0 l 5
 0 96 l 5
EndSplineSet
EndChar

StartChar: slash
Encoding: 47 47 15
Width: 576
Flags: HW
LayerCount: 2
Fore
SplineSet
384 672 m 1
 480 672 l 1
 480 576 l 1
 384 576 l 1
 384 672 l 1
384 576 m 1
 384 480 l 1
 384 384 l 1
 288 384 l 1
 288 480 l 1
 288 576 l 1
 384 576 l 1
288 384 m 1
 288 288 l 1
 192 288 l 1
 192 384 l 1
 288 384 l 1
192 288 m 1
 192 192 l 1
 192 96 l 1
 96 96 l 1
 96 192 l 1
 96 288 l 1
 192 288 l 1
96 96 m 1
 96 0 l 1
 0 0 l 1
 0 96 l 1
 96 96 l 1
EndSplineSet
EndChar

StartChar: zero
Encoding: 48 48 16
Width: 576
Flags: HW
LayerCount: 2
Fore
SplineSet
96 672 m 1
 192 672 l 1
 288 672 l 1
 384 672 l 1
 384 576 l 1
 288 576 l 1
 192 576 l 1
 96 576 l 1
 96 672 l 1
384 576 m 1
 480 576 l 1
 480 480 l 1
 480 384 l 1
 480 288 l 1
 480 192 l 1
 480 96 l 1
 384 96 l 1
 384 192 l 1
 384 288 l 1
 384 384 l 1
 288 384 l 1
 288 480 l 1
 384 480 l 1
 384 576 l 1
384 96 m 1
 384 0 l 1
 288 0 l 1
 192 0 l 1
 96 0 l 1
 96 96 l 1
 192 96 l 1
 288 96 l 1
 384 96 l 1
96 96 m 1
 0 96 l 1
 0 192 l 1
 0 288 l 1
 0 384 l 1
 0 480 l 1
 0 576 l 1
 96 576 l 1
 96 480 l 1
 96 384 l 1
 96 288 l 1
 192 288 l 1
 192 192 l 1
 96 192 l 1
 96 96 l 1
192 288 m 1
 192 384 l 1
 288 384 l 1
 288 288 l 1
 192 288 l 1
EndSplineSet
EndChar

StartChar: one
Encoding: 49 49 17
Width: 576
Flags: HW
LayerCount: 2
Fore
SplineSet
192 672 m 1
 288 672 l 1
 288 576 l 1
 288 480 l 1
 288 384 l 1
 288 288 l 1
 288 192 l 1
 288 96 l 1
 384 96 l 1
 480 96 l 1
 480 0 l 1
 384 0 l 1
 288 0 l 1
 192 0 l 1
 96 0 l 1
 0 0 l 1
 0 96 l 1
 96 96 l 1
 192 96 l 1
 192 192 l 1
 192 288 l 1
 192 384 l 1
 192 480 l 1
 96 480 l 1
 96 576 l 1
 192 576 l 1
 192 672 l 1
EndSplineSet
EndChar

StartChar: two
Encoding: 50 50 18
Width: 576
Flags: HW
LayerCount: 2
Fore
SplineSet
96 672 m 1
 192 672 l 1
 288 672 l 1
 384 672 l 1
 384 576 l 1
 288 576 l 1
 192 576 l 1
 96 576 l 1
 96 672 l 1
384 576 m 1
 480 576 l 1
 480 480 l 1
 384 480 l 1
 384 576 l 1
384 480 m 1
 384 384 l 1
 288 384 l 1
 288 480 l 1
 384 480 l 1
288 384 m 1
 288 288 l 1
 192 288 l 1
 192 384 l 1
 288 384 l 1
192 288 m 1
 192 192 l 1
 96 192 l 1
 96 288 l 1
 192 288 l 1
96 192 m 1
 96 96 l 1
 192 96 l 1
 288 96 l 1
 384 96 l 1
 480 96 l 1
 480 0 l 1
 384 0 l 1
 288 0 l 1
 192 0 l 1
 96 0 l 1
 0 0 l 1
 0 96 l 1
 0 192 l 1
 96 192 l 1
96 576 m 1
 96 480 l 1
 0 480 l 1
 0 576 l 1
 96 576 l 1
EndSplineSet
EndChar

StartChar: three
Encoding: 51 51 19
Width: 576
Flags: HW
LayerCount: 2
Fore
SplineSet
96 672 m 1
 192 672 l 1
 288 672 l 1
 384 672 l 1
 384 576 l 1
 288 576 l 1
 192 576 l 1
 96 576 l 1
 96 672 l 1
384 576 m 1
 480 576 l 1
 480 480 l 1
 480 384 l 1
 384 384 l 1
 384 480 l 1
 384 576 l 1
384 384 m 1
 384 288 l 1
 288 288 l 1
 192 288 l 1
 192 384 l 1
 288 384 l 1
 384 384 l 1
384 288 m 1
 480 288 l 1
 480 192 l 1
 480 96 l 1
 384 96 l 1
 384 192 l 1
 384 288 l 1
384 96 m 1
 384 0 l 1
 288 0 l 1
 192 0 l 1
 96 0 l 1
 96 96 l 1
 192 96 l 1
 288 96 l 1
 384 96 l 1
96 96 m 1
 0 96 l 1
 0 192 l 1
 96 192 l 1
 96 96 l 1
96 576 m 1
 96 480 l 1
 0 480 l 1
 0 576 l 1
 96 576 l 1
EndSplineSet
EndChar

StartChar: four
Encoding: 52 52 20
Width: 576
Flags: HW
LayerCount: 2
Fore
SplineSet
288 672 m 1
 384 672 l 1
 480 672 l 1
 480 576 l 1
 480 480 l 1
 480 384 l 1
 480 288 l 1
 480 192 l 1
 480 96 l 1
 480 0 l 1
 384 0 l 1
 384 96 l 1
 384 192 l 1
 288 192 l 1
 192 192 l 1
 96 192 l 1
 0 192 l 1
 0 288 l 1
 0 384 l 1
 96 384 l 1
 96 288 l 1
 192 288 l 1
 288 288 l 1
 384 288 l 1
 384 384 l 1
 384 480 l 1
 384 576 l 1
 288 576 l 1
 288 672 l 1
96 384 m 1
 96 480 l 1
 192 480 l 1
 192 384 l 1
 96 384 l 1
192 480 m 1
 192 576 l 1
 288 576 l 1
 288 480 l 1
 192 480 l 1
EndSplineSet
EndChar

StartChar: five
Encoding: 53 53 21
Width: 576
Flags: HW
LayerCount: 2
Fore
SplineSet
0 672 m 1
 96 672 l 1
 192 672 l 1
 288 672 l 1
 384 672 l 1
 480 672 l 1
 480 576 l 1
 384 576 l 1
 288 576 l 1
 192 576 l 1
 96 576 l 1
 96 480 l 1
 96 384 l 1
 192 384 l 1
 288 384 l 1
 384 384 l 1
 384 288 l 1
 288 288 l 1
 192 288 l 1
 96 288 l 1
 0 288 l 1
 0 384 l 1
 0 480 l 1
 0 576 l 1
 0 672 l 1
384 288 m 1
 480 288 l 1
 480 192 l 1
 480 96 l 1
 384 96 l 1
 384 192 l 1
 384 288 l 1
384 96 m 1
 384 0 l 1
 288 0 l 1
 192 0 l 1
 96 0 l 1
 0 0 l 1
 0 96 l 1
 96 96 l 1
 192 96 l 1
 288 96 l 1
 384 96 l 1
EndSplineSet
EndChar

StartChar: six
Encoding: 54 54 22
Width: 576
Flags: HW
LayerCount: 2
Fore
SplineSet
0 672 m 1
 96 672 l 1
 192 672 l 1
 288 672 l 1
 384 672 l 1
 480 672 l 1
 480 576 l 1
 384 576 l 1
 288 576 l 1
 192 576 l 1
 96 576 l 1
 96 480 l 1
 96 384 l 1
 192 384 l 1
 288 384 l 1
 384 384 l 1
 480 384 l 1
 480 288 l 1
 480 192 l 1
 480 96 l 1
 480 0 l 1
 384 0 l 1
 288 0 l 1
 192 0 l 1
 96 0 l 1
 0 0 l 1
 0 96 l 1
 0 192 l 1
 0 288 l 1
 0 384 l 1
 0 480 l 1
 0 576 l 1
 0 672 l 1
96 288 m 1
 96 192 l 1
 96 96 l 1
 192 96 l 1
 288 96 l 1
 384 96 l 1
 384 192 l 1
 384 288 l 1
 288 288 l 1
 192 288 l 1
 96 288 l 1
EndSplineSet
EndChar

StartChar: seven
Encoding: 55 55 23
Width: 576
Flags: HW
LayerCount: 2
Fore
SplineSet
0 672 m 1
 96 672 l 1
 192 672 l 1
 288 672 l 1
 384 672 l 1
 480 672 l 1
 480 576 l 1
 480 480 l 1
 384 480 l 1
 384 576 l 1
 288 576 l 1
 192 576 l 1
 96 576 l 1
 0 576 l 1
 0 672 l 1
384 480 m 1
 384 384 l 1
 288 384 l 1
 288 480 l 1
 384 480 l 1
288 384 m 1
 288 288 l 1
 288 192 l 1
 288 96 l 1
 288 0 l 1
 192 0 l 1
 192 96 l 1
 192 192 l 1
 192 288 l 1
 192 384 l 1
 288 384 l 1
EndSplineSet
EndChar

StartChar: eight
Encoding: 56 56 24
Width: 576
Flags: HW
LayerCount: 2
Fore
SplineSet
96 672 m 1
 192 672 l 1
 288 672 l 1
 384 672 l 1
 384 576 l 1
 288 576 l 1
 192 576 l 1
 96 576 l 1
 96 672 l 1
384 576 m 1
 480 576 l 1
 480 480 l 1
 480 384 l 1
 384 384 l 1
 384 480 l 1
 384 576 l 1
384 384 m 1
 384 288 l 1
 288 288 l 1
 192 288 l 1
 96 288 l 1
 96 384 l 1
 192 384 l 1
 288 384 l 1
 384 384 l 1
384 288 m 1
 480 288 l 1
 480 192 l 1
 480 96 l 1
 384 96 l 1
 384 192 l 1
 384 288 l 1
384 96 m 1
 384 0 l 1
 288 0 l 1
 192 0 l 1
 96 0 l 1
 96 96 l 1
 192 96 l 1
 288 96 l 1
 384 96 l 1
96 96 m 1
 0 96 l 1
 0 192 l 1
 0 288 l 1
 96 288 l 1
 96 192 l 1
 96 96 l 1
96 384 m 1
 0 384 l 1
 0 480 l 1
 0 576 l 1
 96 576 l 1
 96 480 l 1
 96 384 l 1
EndSplineSet
EndChar

StartChar: nine
Encoding: 57 57 25
Width: 576
Flags: HW
LayerCount: 2
Fore
SplineSet
0 672 m 1
 96 672 l 1
 192 672 l 1
 288 672 l 1
 384 672 l 1
 480 672 l 1
 480 576 l 1
 480 480 l 1
 480 384 l 1
 480 288 l 1
 480 192 l 1
 480 96 l 1
 480 0 l 1
 384 0 l 1
 288 0 l 1
 192 0 l 1
 96 0 l 1
 0 0 l 1
 0 96 l 1
 96 96 l 1
 192 96 l 1
 288 96 l 1
 384 96 l 1
 384 192 l 1
 384 288 l 1
 288 288 l 1
 192 288 l 1
 96 288 l 1
 0 288 l 1
 0 384 l 1
 0 480 l 1
 0 576 l 1
 0 672 l 1
96 576 m 1
 96 480 l 1
 96 384 l 1
 192 384 l 1
 288 384 l 1
 384 384 l 1
 384 480 l 1
 384 576 l 1
 288 576 l 1
 192 576 l 1
 96 576 l 1
EndSplineSet
EndChar

StartChar: colon
Encoding: 58 58 26
Width: 192
Flags: HW
LayerCount: 2
Fore
SplineSet
0 576 m 1
 96 576 l 1
 96 480 l 1
 0 480 l 1
 0 576 l 1
0 192 m 1
 96 192 l 1
 96 96 l 1
 0 96 l 1
 0 192 l 1
EndSplineSet
EndChar

StartChar: semicolon
Encoding: 59 59 27
Width: 192
Flags: HW
LayerCount: 2
Fore
SplineSet
0 576 m 1
 96 576 l 1
 96 480 l 1
 0 480 l 1
 0 576 l 1
0 192 m 1
 96 192 l 1
 96 96 l 1
 96 0 l 1
 0 0 l 1
 0 96 l 1
 0 192 l 1
EndSplineSet
EndChar

StartChar: less
Encoding: 60 60 28
Width: 480
Flags: HW
LayerCount: 2
Fore
SplineSet
288 672 m 1
 384 672 l 1
 384 576 l 1
 288 576 l 1
 288 672 l 1
288 576 m 1
 288 480 l 1
 192 480 l 1
 192 576 l 1
 288 576 l 1
192 480 m 1
 192 384 l 1
 96 384 l 1
 96 480 l 1
 192 480 l 1
96 384 m 1
 96 288 l 1
 0 288 l 1
 0 384 l 1
 96 384 l 1
96 288 m 1
 192 288 l 1
 192 192 l 1
 96 192 l 1
 96 288 l 1
192 192 m 1
 288 192 l 1
 288 96 l 1
 192 96 l 1
 192 192 l 1
288 96 m 1
 384 96 l 1
 384 0 l 1
 288 0 l 1
 288 96 l 1
EndSplineSet
EndChar

StartChar: equal
Encoding: 61 61 29
Width: 576
Flags: HW
LayerCount: 2
Fore
SplineSet
0 480 m 1
 96 480 l 1
 192 480 l 1
 288 480 l 1
 384 480 l 1
 480 480 l 1
 480 384 l 1
 384 384 l 1
 288 384 l 1
 192 384 l 1
 96 384 l 1
 0 384 l 1
 0 480 l 1
0 288 m 1
 96 288 l 1
 192 288 l 1
 288 288 l 1
 384 288 l 1
 480 288 l 1
 480 192 l 1
 384 192 l 1
 288 192 l 1
 192 192 l 1
 96 192 l 1
 0 192 l 1
 0 288 l 1
EndSplineSet
EndChar

StartChar: greater
Encoding: 62 62 30
Width: 480
Flags: HW
LayerCount: 2
Fore
SplineSet
0 672 m 1
 96 672 l 1
 96 576 l 1
 0 576 l 1
 0 672 l 1
96 576 m 1
 192 576 l 1
 192 480 l 1
 96 480 l 1
 96 576 l 1
192 480 m 1
 288 480 l 1
 288 384 l 1
 192 384 l 1
 192 480 l 1
288 384 m 1
 384 384 l 1
 384 288 l 1
 288 288 l 1
 288 384 l 1
288 288 m 1
 288 192 l 1
 192 192 l 1
 192 288 l 1
 288 288 l 1
192 192 m 1
 192 96 l 1
 96 96 l 1
 96 192 l 1
 192 192 l 1
96 96 m 1
 96 0 l 1
 0 0 l 1
 0 96 l 1
 96 96 l 1
EndSplineSet
EndChar

StartChar: question
Encoding: 63 63 31
Width: 576
Flags: HW
LayerCount: 2
Fore
SplineSet
96 672 m 1
 192 672 l 1
 288 672 l 1
 384 672 l 1
 384 576 l 1
 288 576 l 1
 192 576 l 1
 96 576 l 1
 96 672 l 1
384 576 m 1
 480 576 l 1
 480 480 l 1
 480 384 l 1
 384 384 l 1
 384 480 l 1
 384 576 l 1
384 384 m 1
 384 288 l 1
 288 288 l 1
 288 384 l 1
 384 384 l 1
288 288 m 1
 288 192 l 1
 192 192 l 1
 192 288 l 1
 288 288 l 1
96 576 m 1
 96 480 l 1
 0 480 l 1
 0 576 l 1
 96 576 l 1
192 96 m 1
 288 96 l 1
 288 0 l 1
 192 0 l 1
 192 96 l 1
EndSplineSet
EndChar

StartChar: at
Encoding: 64 64 32
Width: 576
Flags: HW
LayerCount: 2
Fore
SplineSet
96 576 m 1
 192 576 l 1
 288 576 l 1
 384 576 l 1
 384 480 l 1
 288 480 l 1
 192 480 l 1
 96 480 l 1
 96 576 l 1
384 480 m 1
 480 480 l 1
 480 384 l 1
 480 288 l 1
 480 192 l 1
 384 192 l 1
 288 192 l 1
 192 192 l 1
 192 288 l 1
 192 384 l 1
 288 384 l 1
 384 384 l 1
 384 480 l 1
96 480 m 1
 96 384 l 1
 96 288 l 1
 96 192 l 1
 96 96 l 1
 0 96 l 1
 0 192 l 1
 0 288 l 1
 0 384 l 1
 0 480 l 1
 96 480 l 1
96 96 m 1
 192 96 l 1
 288 96 l 1
 384 96 l 1
 384 0 l 1
 288 0 l 1
 192 0 l 1
 96 0 l 1
 96 96 l 1
EndSplineSet
EndChar

StartChar: A
Encoding: 65 65 33
Width: 576
Flags: HW
LayerCount: 2
Fore
SplineSet
96 672 m 1
 192 672 l 1
 288 672 l 1
 384 672 l 1
 384 576 l 1
 288 576 l 1
 192 576 l 1
 96 576 l 1
 96 672 l 1
384 576 m 1
 480 576 l 1
 480 480 l 1
 480 384 l 1
 480 288 l 1
 480 192 l 1
 480 96 l 1
 480 0 l 1
 384 0 l 1
 384 96 l 1
 384 192 l 1
 384 288 l 1
 288 288 l 1
 192 288 l 1
 96 288 l 1
 96 192 l 1
 96 96 l 1
 96 0 l 1
 0 0 l 1
 0 96 l 1
 0 192 l 1
 0 288 l 1
 0 384 l 1
 0 480 l 1
 0 576 l 1
 96 576 l 1
 96 480 l 1
 96 384 l 1
 192 384 l 1
 288 384 l 1
 384 384 l 1
 384 480 l 1
 384 576 l 1
EndSplineSet
EndChar

StartChar: B
Encoding: 66 66 34
Width: 576
Flags: HW
LayerCount: 2
Fore
SplineSet
0 672 m 1
 96 672 l 1
 192 672 l 1
 288 672 l 1
 384 672 l 1
 384 576 l 1
 288 576 l 1
 192 576 l 1
 96 576 l 1
 96 480 l 1
 96 384 l 1
 192 384 l 1
 288 384 l 1
 384 384 l 1
 384 288 l 1
 288 288 l 1
 192 288 l 1
 96 288 l 1
 96 192 l 1
 96 96 l 1
 192 96 l 1
 288 96 l 1
 384 96 l 1
 384 0 l 1
 288 0 l 1
 192 0 l 1
 96 0 l 1
 0 0 l 1
 0 96 l 1
 0 192 l 1
 0 288 l 1
 0 384 l 1
 0 480 l 1
 0 576 l 1
 0 672 l 1
384 576 m 1
 480 576 l 1
 480 480 l 1
 480 384 l 1
 384 384 l 1
 384 480 l 1
 384 576 l 1
384 288 m 1
 480 288 l 1
 480 192 l 1
 480 96 l 1
 384 96 l 1
 384 192 l 1
 384 288 l 1
EndSplineSet
EndChar

StartChar: C
Encoding: 67 67 35
Width: 576
Flags: HW
LayerCount: 2
Fore
SplineSet
0 672 m 1
 96 672 l 1
 192 672 l 1
 288 672 l 1
 384 672 l 1
 480 672 l 1
 480 576 l 1
 384 576 l 1
 288 576 l 1
 192 576 l 1
 96 576 l 1
 96 480 l 1
 96 384 l 1
 96 288 l 1
 96 192 l 1
 96 96 l 1
 192 96 l 1
 288 96 l 1
 384 96 l 1
 480 96 l 1
 480 0 l 1
 384 0 l 1
 288 0 l 1
 192 0 l 1
 96 0 l 1
 0 0 l 1
 0 96 l 1
 0 192 l 1
 0 288 l 1
 0 384 l 1
 0 480 l 1
 0 576 l 1
 0 672 l 1
EndSplineSet
EndChar

StartChar: D
Encoding: 68 68 36
Width: 576
Flags: HW
LayerCount: 2
Fore
SplineSet
0 672 m 1
 96 672 l 1
 192 672 l 1
 288 672 l 1
 384 672 l 1
 384 576 l 1
 288 576 l 1
 192 576 l 1
 96 576 l 1
 96 480 l 1
 96 384 l 1
 96 288 l 1
 96 192 l 1
 96 96 l 1
 192 96 l 1
 288 96 l 1
 384 96 l 1
 384 0 l 1
 288 0 l 1
 192 0 l 1
 96 0 l 1
 0 0 l 1
 0 96 l 1
 0 192 l 1
 0 288 l 1
 0 384 l 1
 0 480 l 1
 0 576 l 1
 0 672 l 1
384 576 m 1
 480 576 l 1
 480 480 l 1
 480 384 l 1
 480 288 l 1
 480 192 l 1
 480 96 l 1
 384 96 l 1
 384 192 l 1
 384 288 l 1
 384 384 l 1
 384 480 l 1
 384 576 l 1
EndSplineSet
EndChar

StartChar: E
Encoding: 69 69 37
Width: 576
Flags: HW
LayerCount: 2
Fore
SplineSet
0 672 m 1
 96 672 l 1
 192 672 l 1
 288 672 l 1
 384 672 l 1
 480 672 l 1
 480 576 l 1
 384 576 l 1
 288 576 l 1
 192 576 l 1
 96 576 l 1
 96 480 l 1
 96 384 l 1
 192 384 l 1
 288 384 l 1
 288 288 l 1
 192 288 l 1
 96 288 l 1
 96 192 l 1
 96 96 l 1
 192 96 l 1
 288 96 l 1
 384 96 l 1
 480 96 l 1
 480 0 l 1
 384 0 l 1
 288 0 l 1
 192 0 l 1
 96 0 l 1
 0 0 l 1
 0 96 l 1
 0 192 l 1
 0 288 l 1
 0 384 l 1
 0 480 l 1
 0 576 l 1
 0 672 l 1
EndSplineSet
EndChar

StartChar: F
Encoding: 70 70 38
Width: 576
Flags: HW
LayerCount: 2
Fore
SplineSet
0 672 m 1
 96 672 l 1
 192 672 l 1
 288 672 l 1
 384 672 l 1
 480 672 l 1
 480 576 l 1
 384 576 l 1
 288 576 l 1
 192 576 l 1
 96 576 l 1
 96 480 l 1
 96 384 l 1
 192 384 l 1
 288 384 l 1
 288 288 l 1
 192 288 l 1
 96 288 l 1
 96 192 l 1
 96 96 l 1
 96 0 l 1
 0 0 l 1
 0 96 l 1
 0 192 l 1
 0 288 l 1
 0 384 l 1
 0 480 l 1
 0 576 l 1
 0 672 l 1
EndSplineSet
EndChar

StartChar: G
Encoding: 71 71 39
Width: 576
Flags: HW
LayerCount: 2
Fore
SplineSet
0 672 m 1
 96 672 l 1
 192 672 l 1
 288 672 l 1
 384 672 l 1
 480 672 l 1
 480 576 l 1
 384 576 l 1
 288 576 l 1
 192 576 l 1
 96 576 l 1
 96 480 l 1
 96 384 l 1
 96 288 l 1
 96 192 l 1
 96 96 l 1
 192 96 l 1
 288 96 l 1
 384 96 l 1
 384 192 l 1
 384 288 l 1
 288 288 l 1
 192 288 l 1
 192 384 l 1
 288 384 l 1
 384 384 l 1
 480 384 l 1
 480 288 l 1
 480 192 l 1
 480 96 l 1
 480 0 l 1
 384 0 l 1
 288 0 l 1
 192 0 l 1
 96 0 l 1
 0 0 l 1
 0 96 l 1
 0 192 l 1
 0 288 l 1
 0 384 l 1
 0 480 l 1
 0 576 l 1
 0 672 l 1
EndSplineSet
EndChar

StartChar: H
Encoding: 72 72 40
Width: 576
Flags: HW
LayerCount: 2
Fore
SplineSet
0 672 m 1
 96 672 l 1
 96 576 l 1
 96 480 l 1
 96 384 l 1
 192 384 l 1
 288 384 l 1
 384 384 l 1
 384 480 l 1
 384 576 l 1
 384 672 l 1
 480 672 l 1
 480 576 l 1
 480 480 l 1
 480 384 l 1
 480 288 l 1
 480 192 l 1
 480 96 l 1
 480 0 l 1
 384 0 l 1
 384 96 l 1
 384 192 l 1
 384 288 l 1
 288 288 l 1
 192 288 l 1
 96 288 l 1
 96 192 l 1
 96 96 l 1
 96 0 l 1
 0 0 l 1
 0 96 l 1
 0 192 l 1
 0 288 l 1
 0 384 l 1
 0 480 l 1
 0 576 l 1
 0 672 l 1
EndSplineSet
EndChar

StartChar: I
Encoding: 73 73 41
Width: 576
Flags: HW
LayerCount: 2
Fore
SplineSet
0 672 m 1
 96 672 l 1
 192 672 l 1
 288 672 l 1
 384 672 l 1
 480 672 l 1
 480 576 l 1
 384 576 l 1
 288 576 l 1
 288 480 l 1
 288 384 l 1
 288 288 l 1
 288 192 l 1
 288 96 l 1
 384 96 l 1
 480 96 l 1
 480 0 l 1
 384 0 l 1
 288 0 l 1
 192 0 l 1
 96 0 l 1
 0 0 l 1
 0 96 l 1
 96 96 l 1
 192 96 l 1
 192 192 l 1
 192 288 l 1
 192 384 l 1
 192 480 l 1
 192 576 l 1
 96 576 l 1
 0 576 l 1
 0 672 l 1
EndSplineSet
EndChar

StartChar: J
Encoding: 74 74 42
Width: 576
Flags: HW
LayerCount: 2
Fore
SplineSet
384 672 m 1
 480 672 l 1
 480 576 l 1
 480 480 l 1
 480 384 l 1
 480 288 l 1
 480 192 l 1
 480 96 l 1
 384 96 l 1
 384 192 l 1
 384 288 l 1
 384 384 l 1
 384 480 l 1
 384 576 l 1
 384 672 l 1
384 96 m 1
 384 0 l 1
 288 0 l 1
 192 0 l 1
 96 0 l 1
 96 96 l 1
 192 96 l 1
 288 96 l 1
 384 96 l 1
96 96 m 1
 0 96 l 1
 0 192 l 1
 96 192 l 1
 96 96 l 1
EndSplineSet
EndChar

StartChar: K
Encoding: 75 75 43
Width: 576
Flags: HW
LayerCount: 2
Fore
SplineSet
0 672 m 1
 96 672 l 1
 96 576 l 1
 96 480 l 1
 96 384 l 1
 192 384 l 1
 288 384 l 1
 288 288 l 1
 192 288 l 1
 96 288 l 1
 96 192 l 1
 96 96 l 1
 96 0 l 1
 0 0 l 1
 0 96 l 1
 0 192 l 1
 0 288 l 1
 0 384 l 1
 0 480 l 1
 0 576 l 1
 0 672 l 1
288 384 m 1
 288 480 l 1
 384 480 l 1
 384 384 l 1
 288 384 l 1
384 480 m 1
 384 576 l 1
 384 672 l 1
 480 672 l 1
 480 576 l 1
 480 480 l 1
 384 480 l 1
288 288 m 1
 384 288 l 1
 384 192 l 1
 288 192 l 1
 288 288 l 1
384 192 m 1
 480 192 l 1
 480 96 l 1
 480 0 l 1
 384 0 l 1
 384 96 l 1
 384 192 l 1
EndSplineSet
EndChar

StartChar: L
Encoding: 76 76 44
Width: 576
Flags: HW
LayerCount: 2
Fore
SplineSet
0 672 m 1
 96 672 l 1
 96 576 l 1
 96 480 l 1
 96 384 l 1
 96 288 l 1
 96 192 l 1
 96 96 l 1
 192 96 l 1
 288 96 l 1
 384 96 l 1
 480 96 l 1
 480 0 l 1
 384 0 l 1
 288 0 l 1
 192 0 l 1
 96 0 l 1
 0 0 l 1
 0 96 l 1
 0 192 l 1
 0 288 l 1
 0 384 l 1
 0 480 l 1
 0 576 l 1
 0 672 l 1
EndSplineSet
EndChar

StartChar: M
Encoding: 77 77 45
Width: 576
Flags: HW
LayerCount: 2
Fore
SplineSet
0 672 m 1
 96 672 l 1
 96 576 l 1
 192 576 l 1
 192 480 l 1
 96 480 l 1
 96 384 l 1
 96 288 l 1
 96 192 l 1
 96 96 l 1
 96 0 l 1
 0 0 l 1
 0 96 l 1
 0 192 l 1
 0 288 l 1
 0 384 l 1
 0 480 l 1
 0 576 l 1
 0 672 l 1
192 480 m 1
 288 480 l 1
 288 384 l 1
 192 384 l 1
 192 480 l 1
288 480 m 1
 288 576 l 1
 384 576 l 1
 384 672 l 1
 480 672 l 1
 480 576 l 1
 480 480 l 1
 480 384 l 1
 480 288 l 1
 480 192 l 1
 480 96 l 1
 480 0 l 1
 384 0 l 1
 384 96 l 1
 384 192 l 1
 384 288 l 1
 384 384 l 1
 384 480 l 1
 288 480 l 1
EndSplineSet
EndChar

StartChar: N
Encoding: 78 78 46
Width: 576
Flags: HW
LayerCount: 2
Fore
SplineSet
0 672 m 1
 96 672 l 1
 96 576 l 1
 192 576 l 1
 192 480 l 1
 96 480 l 1
 96 384 l 1
 96 288 l 1
 96 192 l 1
 96 96 l 1
 96 0 l 1
 0 0 l 1
 0 96 l 1
 0 192 l 1
 0 288 l 1
 0 384 l 1
 0 480 l 1
 0 576 l 1
 0 672 l 1
192 480 m 1
 288 480 l 1
 288 384 l 1
 192 384 l 1
 192 480 l 1
288 384 m 1
 384 384 l 1
 384 480 l 1
 384 576 l 1
 384 672 l 1
 480 672 l 1
 480 576 l 1
 480 480 l 1
 480 384 l 1
 480 288 l 1
 480 192 l 1
 480 96 l 1
 480 0 l 1
 384 0 l 1
 384 96 l 1
 384 192 l 1
 384 288 l 1
 288 288 l 1
 288 384 l 1
EndSplineSet
EndChar

StartChar: O
Encoding: 79 79 47
Width: 576
Flags: HW
LayerCount: 2
Fore
SplineSet
96 672 m 1
 192 672 l 1
 288 672 l 1
 384 672 l 1
 384 576 l 1
 288 576 l 1
 192 576 l 1
 96 576 l 1
 96 672 l 1
384 576 m 1
 480 576 l 1
 480 480 l 1
 480 384 l 1
 480 288 l 1
 480 192 l 1
 480 96 l 1
 384 96 l 1
 384 192 l 1
 384 288 l 1
 384 384 l 1
 384 480 l 1
 384 576 l 1
384 96 m 1
 384 0 l 1
 288 0 l 1
 192 0 l 1
 96 0 l 1
 96 96 l 1
 192 96 l 1
 288 96 l 1
 384 96 l 1
96 96 m 1
 0 96 l 1
 0 192 l 1
 0 288 l 1
 0 384 l 1
 0 480 l 1
 0 576 l 1
 96 576 l 1
 96 480 l 1
 96 384 l 1
 96 288 l 1
 96 192 l 1
 96 96 l 1
EndSplineSet
EndChar

StartChar: P
Encoding: 80 80 48
Width: 576
Flags: HW
LayerCount: 2
Fore
SplineSet
0 672 m 1
 96 672 l 1
 192 672 l 1
 288 672 l 1
 384 672 l 1
 480 672 l 1
 480 576 l 1
 480 480 l 1
 480 384 l 1
 480 288 l 1
 384 288 l 1
 288 288 l 1
 192 288 l 1
 96 288 l 1
 96 192 l 1
 96 96 l 1
 96 0 l 1
 0 0 l 1
 0 96 l 1
 0 192 l 1
 0 288 l 1
 0 384 l 1
 0 480 l 1
 0 576 l 1
 0 672 l 1
96 576 m 1
 96 480 l 1
 96 384 l 1
 192 384 l 1
 288 384 l 1
 384 384 l 1
 384 480 l 1
 384 576 l 1
 288 576 l 1
 192 576 l 1
 96 576 l 1
EndSplineSet
EndChar

StartChar: Q
Encoding: 81 81 49
Width: 576
Flags: HW
LayerCount: 2
Fore
SplineSet
0 672 m 1
 96 672 l 1
 192 672 l 1
 288 672 l 1
 384 672 l 1
 480 672 l 1
 480 576 l 1
 480 480 l 1
 480 384 l 1
 480 288 l 1
 480 192 l 1
 384 192 l 1
 384 288 l 1
 384 384 l 1
 384 480 l 1
 384 576 l 1
 288 576 l 1
 192 576 l 1
 96 576 l 1
 96 480 l 1
 96 384 l 1
 96 288 l 1
 96 192 l 1
 96 96 l 1
 192 96 l 1
 288 96 l 1
 288 0 l 1
 192 0 l 1
 96 0 l 1
 0 0 l 1
 0 96 l 1
 0 192 l 1
 0 288 l 1
 0 384 l 1
 0 480 l 1
 0 576 l 1
 0 672 l 1
384 192 m 1
 384 96 l 1
 288 96 l 1
 288 192 l 1
 384 192 l 1
384 96 m 1
 480 96 l 1
 480 0 l 1
 384 0 l 1
 384 96 l 1
288 192 m 1
 192 192 l 1
 192 288 l 1
 288 288 l 1
 288 192 l 1
EndSplineSet
EndChar

StartChar: R
Encoding: 82 82 50
Width: 576
Flags: HW
LayerCount: 2
Fore
SplineSet
0 672 m 1
 96 672 l 1
 192 672 l 1
 288 672 l 1
 384 672 l 1
 480 672 l 1
 480 576 l 1
 480 480 l 1
 480 384 l 1
 480 288 l 1
 384 288 l 1
 288 288 l 1
 192 288 l 1
 192 192 l 1
 96 192 l 1
 96 96 l 1
 96 0 l 1
 0 0 l 1
 0 96 l 1
 0 192 l 1
 0 288 l 1
 0 384 l 1
 0 480 l 1
 0 576 l 1
 0 672 l 1
192 192 m 1
 288 192 l 1
 288 96 l 1
 192 96 l 1
 192 192 l 1
288 96 m 1
 384 96 l 1
 480 96 l 1
 480 0 l 1
 384 0 l 1
 288 0 l 1
 288 96 l 1
96 576 m 1
 96 480 l 1
 96 384 l 1
 192 384 l 1
 288 384 l 1
 384 384 l 1
 384 480 l 1
 384 576 l 1
 288 576 l 1
 192 576 l 1
 96 576 l 1
EndSplineSet
EndChar

StartChar: S
Encoding: 83 83 51
Width: 576
Flags: HW
LayerCount: 2
Fore
SplineSet
0 672 m 1
 96 672 l 1
 192 672 l 1
 288 672 l 1
 384 672 l 1
 480 672 l 1
 480 576 l 1
 384 576 l 1
 288 576 l 1
 192 576 l 1
 96 576 l 1
 96 480 l 1
 96 384 l 1
 192 384 l 1
 288 384 l 1
 384 384 l 1
 480 384 l 1
 480 288 l 1
 480 192 l 1
 480 96 l 1
 480 0 l 1
 384 0 l 1
 288 0 l 1
 192 0 l 1
 96 0 l 1
 0 0 l 1
 0 96 l 1
 96 96 l 1
 192 96 l 1
 288 96 l 1
 384 96 l 1
 384 192 l 1
 384 288 l 1
 288 288 l 1
 192 288 l 1
 96 288 l 1
 0 288 l 1
 0 384 l 1
 0 480 l 1
 0 576 l 1
 0 672 l 1
EndSplineSet
EndChar

StartChar: T
Encoding: 84 84 52
Width: 576
Flags: HW
LayerCount: 2
Fore
SplineSet
0 672 m 1
 96 672 l 1
 192 672 l 1
 288 672 l 1
 384 672 l 1
 480 672 l 1
 480 576 l 1
 384 576 l 1
 288 576 l 1
 288 480 l 1
 288 384 l 1
 288 288 l 1
 288 192 l 1
 288 96 l 1
 288 0 l 1
 192 0 l 1
 192 96 l 1
 192 192 l 1
 192 288 l 1
 192 384 l 1
 192 480 l 1
 192 576 l 1
 96 576 l 1
 0 576 l 1
 0 672 l 1
EndSplineSet
EndChar

StartChar: U
Encoding: 85 85 53
Width: 576
Flags: HW
LayerCount: 2
Fore
SplineSet
0 672 m 1
 96 672 l 1
 96 576 l 1
 96 480 l 1
 96 384 l 1
 96 288 l 1
 96 192 l 1
 96 96 l 1
 0 96 l 1
 0 192 l 1
 0 288 l 1
 0 384 l 1
 0 480 l 1
 0 576 l 1
 0 672 l 1
96 96 m 1
 192 96 l 1
 288 96 l 1
 384 96 l 1
 384 0 l 1
 288 0 l 1
 192 0 l 1
 96 0 l 1
 96 96 l 1
384 96 m 1
 384 192 l 1
 384 288 l 1
 384 384 l 1
 384 480 l 1
 384 576 l 1
 384 672 l 1
 480 672 l 1
 480 576 l 1
 480 480 l 1
 480 384 l 1
 480 288 l 1
 480 192 l 1
 480 96 l 1
 384 96 l 1
EndSplineSet
EndChar

StartChar: V
Encoding: 86 86 54
Width: 576
Flags: HW
LayerCount: 2
Fore
SplineSet
0 672 m 1
 96 672 l 1
 96 576 l 1
 96 480 l 1
 96 384 l 1
 96 288 l 1
 96 192 l 1
 0 192 l 1
 0 288 l 1
 0 384 l 1
 0 480 l 1
 0 576 l 1
 0 672 l 1
96 192 m 1
 192 192 l 1
 192 96 l 1
 96 96 l 1
 96 192 l 1
192 96 m 1
 288 96 l 1
 288 0 l 1
 192 0 l 1
 192 96 l 1
288 96 m 1
 288 192 l 1
 384 192 l 1
 384 96 l 1
 288 96 l 1
384 192 m 1
 384 288 l 1
 384 384 l 1
 384 480 l 1
 384 576 l 1
 384 672 l 1
 480 672 l 1
 480 576 l 1
 480 480 l 1
 480 384 l 1
 480 288 l 1
 480 192 l 1
 384 192 l 1
EndSplineSet
EndChar

StartChar: W
Encoding: 87 87 55
Width: 576
Flags: HW
LayerCount: 2
Fore
SplineSet
0 672 m 1
 96 672 l 1
 96 576 l 1
 96 480 l 1
 96 384 l 1
 96 288 l 1
 96 192 l 1
 192 192 l 1
 192 96 l 1
 96 96 l 1
 96 0 l 1
 0 0 l 1
 0 96 l 1
 0 192 l 1
 0 288 l 1
 0 384 l 1
 0 480 l 1
 0 576 l 1
 0 672 l 1
192 192 m 1
 192 288 l 1
 288 288 l 1
 288 192 l 1
 192 192 l 1
288 192 m 1
 384 192 l 1
 384 288 l 1
 384 384 l 1
 384 480 l 1
 384 576 l 1
 384 672 l 1
 480 672 l 1
 480 576 l 1
 480 480 l 1
 480 384 l 1
 480 288 l 1
 480 192 l 1
 480 96 l 1
 480 0 l 1
 384 0 l 1
 384 96 l 1
 288 96 l 1
 288 192 l 1
EndSplineSet
EndChar

StartChar: X
Encoding: 88 88 56
Width: 576
Flags: HW
LayerCount: 2
Fore
SplineSet
0 672 m 1
 96 672 l 1
 96 576 l 1
 96 480 l 1
 0 480 l 1
 0 576 l 1
 0 672 l 1
96 480 m 1
 192 480 l 1
 192 384 l 1
 96 384 l 1
 96 480 l 1
192 384 m 1
 288 384 l 1
 288 288 l 1
 192 288 l 1
 192 384 l 1
288 384 m 1
 288 480 l 1
 384 480 l 1
 384 384 l 1
 288 384 l 1
384 480 m 1
 384 576 l 1
 384 672 l 1
 480 672 l 1
 480 576 l 1
 480 480 l 1
 384 480 l 1
288 288 m 1
 384 288 l 1
 384 192 l 1
 288 192 l 1
 288 288 l 1
384 192 m 1
 480 192 l 1
 480 96 l 1
 480 0 l 1
 384 0 l 1
 384 96 l 1
 384 192 l 1
192 288 m 1
 192 192 l 1
 96 192 l 1
 96 288 l 1
 192 288 l 1
96 192 m 1
 96 96 l 1
 96 0 l 1
 0 0 l 1
 0 96 l 1
 0 192 l 1
 96 192 l 1
EndSplineSet
EndChar

StartChar: Y
Encoding: 89 89 57
Width: 576
Flags: HW
LayerCount: 2
Fore
SplineSet
0 672 m 1
 96 672 l 1
 96 576 l 1
 96 480 l 1
 0 480 l 1
 0 576 l 1
 0 672 l 1
96 480 m 1
 192 480 l 1
 192 384 l 1
 96 384 l 1
 96 480 l 1
192 384 m 1
 288 384 l 1
 288 288 l 1
 288 192 l 1
 288 96 l 1
 288 0 l 1
 192 0 l 1
 192 96 l 1
 192 192 l 1
 192 288 l 1
 192 384 l 1
288 384 m 1
 288 480 l 1
 384 480 l 1
 384 384 l 1
 288 384 l 1
384 480 m 1
 384 576 l 1
 384 672 l 1
 480 672 l 1
 480 576 l 1
 480 480 l 1
 384 480 l 1
EndSplineSet
EndChar

StartChar: Z
Encoding: 90 90 58
Width: 576
Flags: HW
LayerCount: 2
Fore
SplineSet
0 672 m 1
 96 672 l 1
 192 672 l 1
 288 672 l 1
 384 672 l 1
 480 672 l 1
 480 576 l 1
 480 480 l 1
 384 480 l 1
 384 576 l 1
 288 576 l 1
 192 576 l 1
 96 576 l 1
 0 576 l 1
 0 672 l 1
384 480 m 1
 384 384 l 1
 288 384 l 1
 288 480 l 1
 384 480 l 1
288 384 m 1
 288 288 l 1
 192 288 l 1
 192 384 l 1
 288 384 l 1
192 288 m 1
 192 192 l 1
 96 192 l 1
 96 288 l 1
 192 288 l 1
96 192 m 1
 96 96 l 1
 192 96 l 1
 288 96 l 1
 384 96 l 1
 480 96 l 1
 480 0 l 1
 384 0 l 1
 288 0 l 1
 192 0 l 1
 96 0 l 1
 0 0 l 1
 0 96 l 1
 0 192 l 1
 96 192 l 1
EndSplineSet
EndChar

StartChar: bracketleft
Encoding: 91 91 59
Width: 384
Flags: HW
LayerCount: 2
Fore
SplineSet
0 672 m 1
 96 672 l 1
 192 672 l 1
 288 672 l 1
 288 576 l 1
 192 576 l 1
 96 576 l 1
 96 480 l 1
 96 384 l 1
 96 288 l 1
 96 192 l 1
 96 96 l 1
 192 96 l 1
 288 96 l 1
 288 0 l 1
 192 0 l 1
 96 0 l 1
 0 0 l 1
 0 96 l 1
 0 192 l 1
 0 288 l 1
 0 384 l 1
 0 480 l 1
 0 576 l 1
 0 672 l 1
EndSplineSet
EndChar

StartChar: backslash
Encoding: 92 92 60
Width: 576
Flags: HW
LayerCount: 2
Fore
SplineSet
0 672 m 1
 96 672 l 1
 96 576 l 1
 0 576 l 1
 0 672 l 1
96 576 m 1
 192 576 l 1
 192 480 l 1
 192 384 l 1
 96 384 l 1
 96 480 l 1
 96 576 l 1
192 384 m 1
 288 384 l 1
 288 288 l 1
 192 288 l 1
 192 384 l 1
288 288 m 1
 384 288 l 1
 384 192 l 1
 384 96 l 1
 288 96 l 1
 288 192 l 1
 288 288 l 1
384 96 m 1
 480 96 l 1
 480 0 l 1
 384 0 l 1
 384 96 l 1
EndSplineSet
EndChar

StartChar: bracketright
Encoding: 93 93 61
Width: 384
Flags: HW
LayerCount: 2
Fore
SplineSet
0 672 m 1
 96 672 l 1
 192 672 l 1
 288 672 l 1
 288 576 l 1
 288 480 l 1
 288 384 l 1
 288 288 l 1
 288 192 l 1
 288 96 l 1
 288 0 l 1
 192 0 l 1
 96 0 l 1
 0 0 l 1
 0 96 l 1
 96 96 l 1
 192 96 l 1
 192 192 l 1
 192 288 l 1
 192 384 l 1
 192 480 l 1
 192 576 l 1
 96 576 l 1
 0 576 l 1
 0 672 l 1
EndSplineSet
EndChar

StartChar: asciicircum
Encoding: 94 94 62
Width: 576
Flags: HW
LayerCount: 2
Fore
SplineSet
192 672 m 1
 288 672 l 1
 288 576 l 1
 192 576 l 1
 192 672 l 1
288 576 m 1
 384 576 l 1
 384 480 l 1
 288 480 l 1
 288 576 l 1
384 480 m 1
 480 480 l 1
 480 384 l 1
 384 384 l 1
 384 480 l 1
192 576 m 1
 192 480 l 1
 96 480 l 1
 96 576 l 1
 192 576 l 1
96 480 m 1
 96 384 l 1
 0 384 l 1
 0 480 l 1
 96 480 l 1
EndSplineSet
EndChar

StartChar: underscore
Encoding: 95 95 63
Width: 576
Flags: HW
LayerCount: 2
Fore
SplineSet
0 96 m 1
 96 96 l 1
 192 96 l 1
 288 96 l 1
 384 96 l 1
 480 96 l 1
 480 0 l 1
 384 0 l 1
 288 0 l 1
 192 0 l 1
 96 0 l 1
 0 0 l 1
 0 96 l 1
EndSplineSet
EndChar

StartChar: grave
Encoding: 96 96 64
Width: 288
Flags: HW
LayerCount: 2
Fore
SplineSet
0 672 m 1
 96 672 l 1
 96 576 l 1
 0 576 l 1
 0 672 l 1
96 576 m 1
 192 576 l 1
 192 480 l 1
 96 480 l 1
 96 576 l 1
EndSplineSet
EndChar

StartChar: a
Encoding: 97 97 65
Width: 576
Flags: HW
LayerCount: 2
Fore
SplineSet
96 480 m 1
 192 480 l 1
 288 480 l 1
 384 480 l 1
 384 384 l 1
 288 384 l 1
 192 384 l 1
 96 384 l 1
 96 480 l 1
384 384 m 1
 480 384 l 1
 480 288 l 1
 480 192 l 1
 480 96 l 1
 480 0 l 1
 384 0 l 1
 288 0 l 1
 192 0 l 1
 96 0 l 1
 96 96 l 1
 192 96 l 1
 288 96 l 1
 384 96 l 1
 384 192 l 1
 288 192 l 1
 192 192 l 1
 96 192 l 1
 96 288 l 1
 192 288 l 1
 288 288 l 1
 384 288 l 1
 384 384 l 1
96 96 m 1
 0 96 l 1
 0 192 l 1
 96 192 l 1
 96 96 l 1
EndSplineSet
EndChar

StartChar: b
Encoding: 98 98 66
Width: 576
Flags: HW
LayerCount: 2
Fore
SplineSet
0 672 m 1
 96 672 l 1
 96 576 l 1
 96 480 l 1
 192 480 l 1
 288 480 l 1
 384 480 l 1
 384 384 l 1
 288 384 l 1
 192 384 l 1
 96 384 l 1
 96 288 l 1
 96 192 l 1
 96 96 l 1
 192 96 l 1
 288 96 l 1
 384 96 l 1
 384 0 l 1
 288 0 l 1
 192 0 l 1
 96 0 l 1
 0 0 l 1
 0 96 l 1
 0 192 l 1
 0 288 l 1
 0 384 l 1
 0 480 l 1
 0 576 l 1
 0 672 l 1
384 384 m 1
 480 384 l 1
 480 288 l 1
 480 192 l 1
 480 96 l 1
 384 96 l 1
 384 192 l 1
 384 288 l 1
 384 384 l 1
EndSplineSet
EndChar

StartChar: c
Encoding: 99 99 67
Width: 576
Flags: HW
LayerCount: 2
Fore
SplineSet
96 480 m 1
 192 480 l 1
 288 480 l 1
 384 480 l 1
 384 384 l 1
 288 384 l 1
 192 384 l 1
 96 384 l 1
 96 480 l 1
384 384 m 1
 480 384 l 1
 480 288 l 1
 384 288 l 1
 384 384 l 1
96 384 m 1
 96 288 l 1
 96 192 l 1
 96 96 l 1
 0 96 l 1
 0 192 l 1
 0 288 l 1
 0 384 l 1
 96 384 l 1
96 96 m 1
 192 96 l 1
 288 96 l 1
 384 96 l 1
 384 0 l 1
 288 0 l 1
 192 0 l 1
 96 0 l 1
 96 96 l 1
384 96 m 1
 384 192 l 1
 480 192 l 1
 480 96 l 1
 384 96 l 1
EndSplineSet
EndChar

StartChar: d
Encoding: 100 100 68
Width: 576
Flags: HW
LayerCount: 2
Fore
SplineSet
384 672 m 1
 480 672 l 1
 480 576 l 1
 480 480 l 1
 480 384 l 1
 480 288 l 1
 480 192 l 1
 480 96 l 1
 384 96 l 1
 384 192 l 1
 384 288 l 1
 384 384 l 1
 288 384 l 1
 192 384 l 1
 96 384 l 1
 96 480 l 1
 192 480 l 1
 288 480 l 1
 384 480 l 1
 384 576 l 1
 384 672 l 1
384 96 m 1
 384 0 l 1
 288 0 l 1
 192 0 l 1
 96 0 l 1
 96 96 l 1
 192 96 l 1
 288 96 l 1
 384 96 l 1
96 96 m 1
 0 96 l 1
 0 192 l 1
 0 288 l 1
 0 384 l 1
 96 384 l 1
 96 288 l 1
 96 192 l 1
 96 96 l 1
EndSplineSet
EndChar

StartChar: e
Encoding: 101 101 69
Width: 576
Flags: HW
LayerCount: 2
Fore
SplineSet
0 480 m 1
 96 480 l 1
 192 480 l 1
 288 480 l 1
 384 480 l 1
 480 480 l 1
 480 384 l 1
 480 288 l 1
 480 192 l 1
 384 192 l 1
 288 192 l 1
 192 192 l 1
 96 192 l 1
 96 96 l 1
 192 96 l 1
 288 96 l 1
 384 96 l 1
 480 96 l 1
 480 0 l 1
 384 0 l 1
 288 0 l 1
 192 0 l 1
 96 0 l 1
 0 0 l 1
 0 96 l 1
 0 192 l 1
 0 288 l 1
 0 384 l 1
 0 480 l 1
96 384 m 1
 96 288 l 1
 192 288 l 1
 288 288 l 1
 384 288 l 1
 384 384 l 1
 288 384 l 1
 192 384 l 1
 96 384 l 1
EndSplineSet
EndChar

StartChar: f
Encoding: 102 102 70
Width: 576
Flags: HW
LayerCount: 2
Fore
SplineSet
288 672 m 1
 384 672 l 1
 480 672 l 1
 480 576 l 1
 384 576 l 1
 288 576 l 1
 288 672 l 1
288 576 m 1
 288 480 l 1
 384 480 l 1
 480 480 l 1
 480 384 l 1
 384 384 l 1
 288 384 l 1
 288 288 l 1
 288 192 l 1
 288 96 l 1
 288 0 l 1
 192 0 l 1
 192 96 l 1
 192 192 l 1
 192 288 l 1
 192 384 l 1
 96 384 l 1
 0 384 l 1
 0 480 l 1
 96 480 l 1
 192 480 l 1
 192 576 l 1
 288 576 l 1
EndSplineSet
EndChar

StartChar: g
Encoding: 103 103 71
Width: 576
Flags: HW
LayerCount: 2
Fore
SplineSet
96 480 m 1
 192 480 l 1
 288 480 l 1
 384 480 l 1
 384 384 l 1
 288 384 l 1
 192 384 l 1
 96 384 l 1
 96 480 l 1
384 384 m 1
 480 384 l 1
 480 288 l 1
 480 192 l 1
 480 96 l 1
 480 0 l 1
 480 -96 l 1
 384 -96 l 1
 384 0 l 1
 288 0 l 1
 192 0 l 1
 96 0 l 1
 96 96 l 1
 192 96 l 1
 288 96 l 1
 384 96 l 1
 384 192 l 1
 384 288 l 1
 384 384 l 1
384 -96 m 1
 384 -192 l 1
 288 -192 l 1
 192 -192 l 1
 96 -192 l 1
 96 -96 l 1
 192 -96 l 1
 288 -96 l 1
 384 -96 l 1
96 96 m 1
 0 96 l 1
 0 192 l 1
 0 288 l 1
 0 384 l 1
 96 384 l 1
 96 288 l 1
 96 192 l 1
 96 96 l 1
EndSplineSet
EndChar

StartChar: h
Encoding: 104 104 72
Width: 576
Flags: HW
LayerCount: 2
Fore
SplineSet
0 672 m 1
 96 672 l 1
 96 576 l 1
 96 480 l 1
 96 384 l 1
 192 384 l 1
 192 288 l 1
 96 288 l 1
 96 192 l 1
 96 96 l 1
 96 0 l 1
 0 0 l 1
 0 96 l 1
 0 192 l 1
 0 288 l 1
 0 384 l 1
 0 480 l 1
 0 576 l 1
 0 672 l 1
192 384 m 1
 192 480 l 1
 288 480 l 1
 384 480 l 1
 384 384 l 1
 288 384 l 1
 192 384 l 1
384 384 m 1
 480 384 l 1
 480 288 l 1
 480 192 l 1
 480 96 l 1
 480 0 l 1
 384 0 l 1
 384 96 l 1
 384 192 l 1
 384 288 l 1
 384 384 l 1
EndSplineSet
EndChar

StartChar: i
Encoding: 105 105 73
Width: 192
Flags: HW
LayerCount: 2
Fore
SplineSet
0 672 m 5
 96 672 l 5
 96 576 l 5
 0 576 l 5
 0 672 l 5
0 480 m 5
 96 480 l 5
 96 384 l 5
 96 288 l 5
 96 192 l 5
 96 96 l 5
 96 0 l 5
 0 0 l 5
 0 96 l 5
 0 192 l 5
 0 288 l 5
 0 384 l 5
 0 480 l 5
EndSplineSet
EndChar

StartChar: j
Encoding: 106 106 74
Width: 576
Flags: HW
LayerCount: 2
Fore
SplineSet
384 480 m 1
 480 480 l 1
 480 384 l 1
 384 384 l 1
 384 480 l 1
384 288 m 1
 480 288 l 1
 480 192 l 1
 480 96 l 1
 480 0 l 1
 480 -96 l 1
 384 -96 l 1
 384 0 l 1
 384 96 l 1
 384 192 l 1
 384 288 l 1
384 -96 m 1
 384 -192 l 1
 288 -192 l 1
 192 -192 l 1
 96 -192 l 1
 96 -96 l 1
 192 -96 l 1
 288 -96 l 1
 384 -96 l 1
96 -96 m 1
 0 -96 l 1
 0 0 l 1
 96 0 l 1
 96 -96 l 1
EndSplineSet
EndChar

StartChar: k
Encoding: 107 107 75
Width: 576
Flags: HW
LayerCount: 2
Fore
SplineSet
0 672 m 1
 96 672 l 1
 96 576 l 1
 96 480 l 1
 96 384 l 1
 96 288 l 1
 192 288 l 1
 288 288 l 1
 288 192 l 1
 192 192 l 1
 96 192 l 1
 96 96 l 1
 96 0 l 1
 0 0 l 1
 0 96 l 1
 0 192 l 1
 0 288 l 1
 0 384 l 1
 0 480 l 1
 0 576 l 1
 0 672 l 1
288 288 m 1
 288 384 l 1
 384 384 l 1
 384 288 l 1
 288 288 l 1
384 384 m 1
 384 480 l 1
 480 480 l 1
 480 384 l 1
 384 384 l 1
288 192 m 1
 384 192 l 1
 384 96 l 1
 288 96 l 1
 288 192 l 1
384 96 m 1
 480 96 l 1
 480 0 l 1
 384 0 l 1
 384 96 l 1
EndSplineSet
EndChar

StartChar: l
Encoding: 108 108 76
Width: 288
Flags: HW
LayerCount: 2
Fore
SplineSet
0 672 m 1
 96 672 l 1
 96 576 l 1
 96 480 l 1
 96 384 l 1
 96 288 l 1
 96 192 l 1
 96 96 l 1
 0 96 l 1
 0 192 l 1
 0 288 l 1
 0 384 l 1
 0 480 l 1
 0 576 l 1
 0 672 l 1
96 96 m 1
 192 96 l 1
 192 0 l 1
 96 0 l 1
 96 96 l 1
EndSplineSet
EndChar

StartChar: m
Encoding: 109 109 77
Width: 576
Flags: HW
LayerCount: 2
Fore
SplineSet
0 480 m 1
 96 480 l 1
 192 480 l 1
 192 384 l 1
 96 384 l 1
 96 288 l 1
 96 192 l 1
 96 96 l 1
 96 0 l 1
 0 0 l 1
 0 96 l 1
 0 192 l 1
 0 288 l 1
 0 384 l 1
 0 480 l 1
192 384 m 1
 288 384 l 1
 288 288 l 1
 288 192 l 1
 288 96 l 1
 288 0 l 1
 192 0 l 1
 192 96 l 1
 192 192 l 1
 192 288 l 1
 192 384 l 1
288 384 m 1
 288 480 l 1
 384 480 l 1
 384 384 l 1
 288 384 l 1
384 384 m 1
 480 384 l 1
 480 288 l 1
 480 192 l 1
 480 96 l 1
 480 0 l 1
 384 0 l 1
 384 96 l 1
 384 192 l 1
 384 288 l 1
 384 384 l 1
EndSplineSet
EndChar

StartChar: n
Encoding: 110 110 78
Width: 576
Flags: HW
LayerCount: 2
Fore
SplineSet
0 480 m 1
 96 480 l 1
 192 480 l 1
 288 480 l 1
 384 480 l 1
 384 384 l 1
 288 384 l 1
 192 384 l 1
 96 384 l 1
 96 288 l 1
 96 192 l 1
 96 96 l 1
 96 0 l 1
 0 0 l 1
 0 96 l 1
 0 192 l 1
 0 288 l 1
 0 384 l 1
 0 480 l 1
384 384 m 1
 480 384 l 1
 480 288 l 1
 480 192 l 1
 480 96 l 1
 480 0 l 1
 384 0 l 1
 384 96 l 1
 384 192 l 1
 384 288 l 1
 384 384 l 1
EndSplineSet
EndChar

StartChar: o
Encoding: 111 111 79
Width: 576
Flags: HW
LayerCount: 2
Fore
SplineSet
96 480 m 1
 192 480 l 1
 288 480 l 1
 384 480 l 1
 384 384 l 1
 288 384 l 1
 192 384 l 1
 96 384 l 1
 96 480 l 1
384 384 m 1
 480 384 l 1
 480 288 l 1
 480 192 l 1
 480 96 l 1
 384 96 l 1
 384 192 l 1
 384 288 l 1
 384 384 l 1
384 96 m 1
 384 0 l 1
 288 0 l 1
 192 0 l 1
 96 0 l 1
 96 96 l 1
 192 96 l 1
 288 96 l 1
 384 96 l 1
96 96 m 1
 0 96 l 1
 0 192 l 1
 0 288 l 1
 0 384 l 1
 96 384 l 1
 96 288 l 1
 96 192 l 1
 96 96 l 1
EndSplineSet
EndChar

StartChar: p
Encoding: 112 112 80
Width: 576
Flags: HW
LayerCount: 2
Fore
SplineSet
0 480 m 1
 96 480 l 1
 192 480 l 1
 288 480 l 1
 384 480 l 1
 384 384 l 1
 288 384 l 1
 192 384 l 1
 96 384 l 1
 96 288 l 1
 96 192 l 1
 96 96 l 1
 192 96 l 1
 288 96 l 1
 384 96 l 1
 384 0 l 1
 288 0 l 1
 192 0 l 1
 96 0 l 1
 96 -96 l 1
 96 -192 l 1
 0 -192 l 1
 0 -96 l 1
 0 0 l 1
 0 96 l 1
 0 192 l 1
 0 288 l 1
 0 384 l 1
 0 480 l 1
384 384 m 1
 480 384 l 1
 480 288 l 1
 480 192 l 1
 480 96 l 1
 384 96 l 1
 384 192 l 1
 384 288 l 1
 384 384 l 1
EndSplineSet
EndChar

StartChar: q
Encoding: 113 113 81
Width: 576
Flags: HW
LayerCount: 2
Fore
SplineSet
96 480 m 1
 192 480 l 1
 288 480 l 1
 384 480 l 1
 480 480 l 1
 480 384 l 1
 480 288 l 1
 480 192 l 1
 480 96 l 1
 480 0 l 1
 480 -96 l 1
 480 -192 l 1
 384 -192 l 1
 384 -96 l 1
 384 0 l 1
 288 0 l 1
 192 0 l 1
 96 0 l 1
 96 96 l 1
 192 96 l 1
 288 96 l 1
 384 96 l 1
 384 192 l 1
 384 288 l 1
 384 384 l 1
 288 384 l 1
 192 384 l 1
 96 384 l 1
 96 480 l 1
96 96 m 1
 0 96 l 1
 0 192 l 1
 0 288 l 1
 0 384 l 1
 96 384 l 1
 96 288 l 1
 96 192 l 1
 96 96 l 1
EndSplineSet
EndChar

StartChar: r
Encoding: 114 114 82
Width: 576
Flags: HW
LayerCount: 2
Fore
SplineSet
0 480 m 1
 96 480 l 1
 96 384 l 1
 192 384 l 1
 192 288 l 1
 96 288 l 1
 96 192 l 1
 96 96 l 1
 96 0 l 1
 0 0 l 1
 0 96 l 1
 0 192 l 1
 0 288 l 1
 0 384 l 1
 0 480 l 1
192 384 m 1
 192 480 l 1
 288 480 l 1
 384 480 l 1
 384 384 l 1
 288 384 l 1
 192 384 l 1
384 384 m 1
 480 384 l 1
 480 288 l 1
 384 288 l 1
 384 384 l 1
EndSplineSet
EndChar

StartChar: s
Encoding: 115 115 83
Width: 576
Flags: HW
LayerCount: 2
Fore
SplineSet
96 480 m 1
 192 480 l 1
 288 480 l 1
 384 480 l 1
 480 480 l 1
 480 384 l 1
 384 384 l 1
 288 384 l 1
 192 384 l 1
 96 384 l 1
 96 480 l 1
96 384 m 1
 96 288 l 1
 0 288 l 1
 0 384 l 1
 96 384 l 1
96 288 m 1
 192 288 l 1
 288 288 l 1
 384 288 l 1
 384 192 l 1
 288 192 l 1
 192 192 l 1
 96 192 l 1
 96 288 l 1
384 192 m 1
 480 192 l 1
 480 96 l 1
 384 96 l 1
 384 192 l 1
384 96 m 1
 384 0 l 1
 288 0 l 1
 192 0 l 1
 96 0 l 1
 0 0 l 1
 0 96 l 1
 96 96 l 1
 192 96 l 1
 288 96 l 1
 384 96 l 1
EndSplineSet
EndChar

StartChar: t
Encoding: 116 116 84
Width: 576
Flags: HW
LayerCount: 2
Fore
SplineSet
192 672 m 1
 288 672 l 1
 288 576 l 1
 288 480 l 1
 384 480 l 1
 480 480 l 1
 480 384 l 1
 384 384 l 1
 288 384 l 1
 288 288 l 1
 288 192 l 1
 288 96 l 1
 192 96 l 1
 192 192 l 1
 192 288 l 1
 192 384 l 1
 96 384 l 1
 0 384 l 1
 0 480 l 1
 96 480 l 1
 192 480 l 1
 192 576 l 1
 192 672 l 1
288 96 m 1
 384 96 l 1
 480 96 l 1
 480 0 l 1
 384 0 l 1
 288 0 l 1
 288 96 l 1
EndSplineSet
EndChar

StartChar: u
Encoding: 117 117 85
Width: 576
Flags: HW
LayerCount: 2
Fore
SplineSet
0 480 m 1
 96 480 l 1
 96 384 l 1
 96 288 l 1
 96 192 l 1
 96 96 l 1
 0 96 l 1
 0 192 l 1
 0 288 l 1
 0 384 l 1
 0 480 l 1
96 96 m 1
 192 96 l 1
 288 96 l 1
 384 96 l 1
 384 192 l 1
 384 288 l 1
 384 384 l 1
 384 480 l 1
 480 480 l 1
 480 384 l 1
 480 288 l 1
 480 192 l 1
 480 96 l 1
 480 0 l 1
 384 0 l 1
 288 0 l 1
 192 0 l 1
 96 0 l 1
 96 96 l 1
EndSplineSet
EndChar

StartChar: v
Encoding: 118 118 86
Width: 576
Flags: HW
LayerCount: 2
Fore
SplineSet
0 480 m 1
 96 480 l 1
 96 384 l 1
 96 288 l 1
 96 192 l 1
 0 192 l 1
 0 288 l 1
 0 384 l 1
 0 480 l 1
96 192 m 1
 192 192 l 1
 192 96 l 1
 96 96 l 1
 96 192 l 1
192 96 m 1
 288 96 l 1
 288 0 l 1
 192 0 l 1
 192 96 l 1
288 96 m 1
 288 192 l 1
 384 192 l 1
 384 96 l 1
 288 96 l 1
384 192 m 1
 384 288 l 1
 384 384 l 1
 384 480 l 1
 480 480 l 1
 480 384 l 1
 480 288 l 1
 480 192 l 1
 384 192 l 1
EndSplineSet
EndChar

StartChar: w
Encoding: 119 119 87
Width: 576
Flags: HW
LayerCount: 2
Fore
SplineSet
0 480 m 1
 96 480 l 1
 96 384 l 1
 96 288 l 1
 96 192 l 1
 96 96 l 1
 0 96 l 1
 0 192 l 1
 0 288 l 1
 0 384 l 1
 0 480 l 1
96 96 m 1
 192 96 l 1
 192 192 l 1
 192 288 l 1
 288 288 l 1
 288 192 l 1
 288 96 l 1
 384 96 l 1
 384 192 l 1
 384 288 l 1
 384 384 l 1
 384 480 l 1
 480 480 l 1
 480 384 l 1
 480 288 l 1
 480 192 l 1
 480 96 l 1
 480 0 l 1
 384 0 l 1
 288 0 l 1
 192 0 l 1
 96 0 l 1
 96 96 l 1
EndSplineSet
EndChar

StartChar: x
Encoding: 120 120 88
Width: 576
Flags: HW
LayerCount: 2
Fore
SplineSet
0 480 m 1
 96 480 l 1
 96 384 l 1
 0 384 l 1
 0 480 l 1
96 384 m 1
 192 384 l 1
 192 288 l 1
 96 288 l 1
 96 384 l 1
192 288 m 1
 288 288 l 1
 288 192 l 1
 192 192 l 1
 192 288 l 1
288 288 m 1
 288 384 l 1
 384 384 l 1
 384 288 l 1
 288 288 l 1
384 384 m 1
 384 480 l 1
 480 480 l 1
 480 384 l 1
 384 384 l 1
288 192 m 1
 384 192 l 1
 384 96 l 1
 288 96 l 1
 288 192 l 1
384 96 m 1
 480 96 l 1
 480 0 l 1
 384 0 l 1
 384 96 l 1
192 192 m 1
 192 96 l 1
 96 96 l 1
 96 192 l 1
 192 192 l 1
96 96 m 1
 96 0 l 1
 0 0 l 1
 0 96 l 1
 96 96 l 1
EndSplineSet
EndChar

StartChar: y
Encoding: 121 121 89
Width: 576
Flags: HW
LayerCount: 2
Fore
SplineSet
0 480 m 1
 96 480 l 1
 96 384 l 1
 96 288 l 1
 96 192 l 1
 96 96 l 1
 0 96 l 1
 0 192 l 1
 0 288 l 1
 0 384 l 1
 0 480 l 1
96 96 m 1
 192 96 l 1
 288 96 l 1
 384 96 l 1
 384 192 l 1
 384 288 l 1
 384 384 l 1
 384 480 l 1
 480 480 l 1
 480 384 l 1
 480 288 l 1
 480 192 l 1
 480 96 l 1
 480 0 l 1
 480 -96 l 1
 384 -96 l 1
 384 0 l 1
 288 0 l 1
 192 0 l 1
 96 0 l 1
 96 96 l 1
384 -96 m 1
 384 -192 l 1
 288 -192 l 1
 192 -192 l 1
 96 -192 l 1
 0 -192 l 1
 0 -96 l 1
 96 -96 l 1
 192 -96 l 1
 288 -96 l 1
 384 -96 l 1
EndSplineSet
EndChar

StartChar: z
Encoding: 122 122 90
Width: 576
Flags: HW
LayerCount: 2
Fore
SplineSet
0 480 m 1
 96 480 l 1
 192 480 l 1
 288 480 l 1
 384 480 l 1
 480 480 l 1
 480 384 l 1
 384 384 l 1
 384 288 l 1
 288 288 l 1
 288 384 l 1
 192 384 l 1
 96 384 l 1
 0 384 l 1
 0 480 l 1
288 288 m 1
 288 192 l 1
 192 192 l 1
 192 288 l 1
 288 288 l 1
192 192 m 1
 192 96 l 1
 288 96 l 1
 384 96 l 1
 480 96 l 1
 480 0 l 1
 384 0 l 1
 288 0 l 1
 192 0 l 1
 96 0 l 1
 0 0 l 1
 0 96 l 1
 96 96 l 1
 96 192 l 1
 192 192 l 1
EndSplineSet
EndChar

StartChar: braceleft
Encoding: 123 123 91
Width: 480
Flags: HW
LayerCount: 2
Fore
SplineSet
192 672 m 1
 288 672 l 1
 384 672 l 1
 384 576 l 1
 288 576 l 1
 192 576 l 1
 192 672 l 1
192 576 m 1
 192 480 l 1
 192 384 l 1
 96 384 l 1
 96 480 l 1
 96 576 l 1
 192 576 l 1
96 384 m 1
 96 288 l 1
 0 288 l 1
 0 384 l 1
 96 384 l 1
96 288 m 1
 192 288 l 1
 192 192 l 1
 192 96 l 1
 96 96 l 1
 96 192 l 1
 96 288 l 1
192 96 m 1
 288 96 l 1
 384 96 l 1
 384 0 l 1
 288 0 l 1
 192 0 l 1
 192 96 l 1
EndSplineSet
EndChar

StartChar: bar
Encoding: 124 124 92
Width: 192
Flags: HW
LayerCount: 2
Fore
SplineSet
0 672 m 5
 96 672 l 5
 96 576 l 5
 96 480 l 5
 96 384 l 5
 96 288 l 5
 96 192 l 5
 96 96 l 5
 96 0 l 5
 0 0 l 5
 0 96 l 5
 0 192 l 5
 0 288 l 5
 0 384 l 5
 0 480 l 5
 0 576 l 5
 0 672 l 5
EndSplineSet
EndChar

StartChar: braceright
Encoding: 125 125 93
Width: 480
Flags: HW
LayerCount: 2
Fore
SplineSet
0 672 m 1
 96 672 l 1
 192 672 l 1
 192 576 l 1
 96 576 l 1
 0 576 l 1
 0 672 l 1
192 576 m 1
 288 576 l 1
 288 480 l 1
 288 384 l 1
 192 384 l 1
 192 480 l 1
 192 576 l 1
288 384 m 1
 384 384 l 1
 384 288 l 1
 288 288 l 1
 288 384 l 1
288 288 m 1
 288 192 l 1
 288 96 l 1
 192 96 l 1
 192 192 l 1
 192 288 l 1
 288 288 l 1
192 96 m 1
 192 0 l 1
 96 0 l 1
 0 0 l 1
 0 96 l 1
 96 96 l 1
 192 96 l 1
EndSplineSet
EndChar

StartChar: asciitilde
Encoding: 126 126 94
Width: 576
Flags: HW
LayerCount: 2
Fore
SplineSet
96 672 m 1
 192 672 l 1
 192 576 l 1
 96 576 l 1
 96 672 l 1
192 576 m 1
 288 576 l 1
 288 480 l 1
 192 480 l 1
 192 576 l 1
288 480 m 1
 384 480 l 1
 384 384 l 1
 288 384 l 1
 288 480 l 1
384 480 m 1
 384 576 l 1
 480 576 l 1
 480 480 l 1
 384 480 l 1
96 576 m 1
 96 480 l 1
 0 480 l 1
 0 576 l 1
 96 576 l 1
EndSplineSet
EndChar

